<svg width="151" height="81" fill="none" xmlns="http://www.w3.org/2000/svg"><path d="m123.033 15.68 18.21-10.085a2.92 2.92 0 1 0-2.796-5.096l-.122.076-18.093 10.016 2.801 5.089Zm18.835-8.69-18.093 10.009 2.813 5.095 18.233-10.085a2.915 2.915 0 0 0 .971-3.865 2.92 2.92 0 0 0-3.79-1.23l-.128.076m7.622 7.476a2.918 2.918 0 0 0-3.951-1.138l-.128.076-18.093 10.01 2.83 5.088 18.21-10.079a2.918 2.918 0 0 0 1.132-3.951" fill="#CE171E"/><path d="m143.887 22.62-.128.075-16.581 9.17a11.768 11.768 0 0 1-15.928-4.67 11.94 11.94 0 0 1 4.471-15.88l.181-.1 10.044-5.556a2.92 2.92 0 0 0 1.522-4.143 2.905 2.905 0 0 0-1.95-1.442 2.92 2.92 0 0 0-2.368.53l-.128.07-9.922 5.487a17.562 17.562 0 0 0 16.949 30.746l.403-.228 16.254-8.994a2.912 2.912 0 0 0 1.699-2.929 2.912 2.912 0 0 0-2.212-2.562 2.92 2.92 0 0 0-2.306.402" fill="#CE171E"/><path d="M87.898 58.537a3.075 3.075 0 0 1-2.573 1.46 2.136 2.136 0 0 1-2.259-2.335c0-2.568 3.584-3.024 5.527-3.228v.695c0 1.249.035 2.293-.695 3.402v.006ZM93.811 52c0-2.124.17-4.085-1.634-5.527-1.425-1.167-3.788-1.599-5.598-1.599-3.717 0-7.89 1.249-8.41 5.527l4.827.45c0-1.751 1.43-2.569 3.064-2.569a2.655 2.655 0 0 1 2.072.835c.52.665.45 1.564.45 2.335v.42c-2.154.21-4.967.344-7.004 1.115-2.335.863-3.963 2.638-3.963 5.252 0 3.339 2.434 5.002 5.562 5.002 2.644 0 4.173-1.004 5.632-3.093-.04.923.042 1.847.245 2.749h5.072a8.621 8.621 0 0 1-.344-2.644L93.81 52ZM.55 62.885h17.031v-4.623H6.113v-5.288h9.035v-4.482H6.113V43.66H17.58v-4.623H.551v23.848ZM40.07 44.88c-2.19 0-4.238.974-5.143 3.058-1.044-2.084-2.504-3.058-4.832-3.058-2.33 0-3.998.974-4.903 3.058h-.064v-2.714H20.26v17.661h5.107v-9.338c0-1.914-.105-4.553 2.574-4.553s2.294 2.709 2.294 4.553v9.338h5.107v-9.338c0-.94 0-2.335.35-3.163a2.487 2.487 0 0 1 2.247-1.372c1.08 0 1.914.315 2.188 1.43.123 1.026.159 2.06.105 3.093v9.338h5.113V51.866c0-1.751.24-3.788-.94-5.183a5.638 5.638 0 0 0-4.313-1.803M56.58 59.669a2.468 2.468 0 0 1-2.154-1.22 5.451 5.451 0 0 1-.583-2.953V52.94c0-1.874.344-4.553 2.813-4.553 2.819 0 2.819 3.689 2.819 5.667 0 1.979 0 5.597-2.918 5.597l.023.018Zm1.611-14.79a4.459 4.459 0 0 0-4.307 2.568h-.14v-8.41h-5.09v23.848h2.784c.315-.94.52-1.95 1.167-2.714 1.29 2.124 2.504 3.058 5.043 3.058 5.317 0 7.161-4.552 7.161-9.175 0-4.173-1.529-9.175-6.571-9.175m14.136 3.648h-.07v-3.303h-4.775v17.66h5.113v-6.717c0-3.128.484-6.292 4.377-6.082V44.95l-.87-.07c-2.223-.175-3.268 1.751-3.787 3.648m32.987.244c1.839 0 2.673 1.564 2.673 3.164l4.868-.28c-.344-4.139-3.613-6.777-7.716-6.777-5.562 0-8.83 3.928-8.83 9.339 0 5.212 3.163 9 8.515 9 4.313 0 7.617-2.604 8.031-7.004l-4.868-.275c-.169 1.635-1.073 3.059-2.883 3.059-2.918 0-2.953-3.059-2.953-5.218 0-2.259.344-5.037 3.163-5.037m17.761 11.084c-2.918 0-2.883-4.313-2.883-6.327 0-2.013.175-5.253 2.918-5.253a2.336 2.336 0 0 1 2.434 1.6c.435 1.418.632 2.9.583 4.383 0 2.118-.14 5.597-3.023 5.597h-.029Zm.029-14.947c-5.387 0-8.375 3.998-8.375 9.14 0 5.141 2.953 9.21 8.375 9.21 5.212 0 8.515-3.998 8.515-9.035 0-5.212-2.988-9.339-8.515-9.339m25.487 1.973a5.152 5.152 0 0 0-4.348-1.944c-2.574 0-4.033 1.074-5.072 3.339h-.07v-3h-4.832v17.66h5.107v-9.49a6.42 6.42 0 0 1 .583-3.128 2.443 2.443 0 0 1 2.154-1.319c2.568 0 2.334 2.639 2.334 4.448v9.49h5.107V51.97c0-1.6 0-3.823-.969-5.148M7.006 32.874a6.857 6.857 0 0 0 5.252-2.387l-1.593-1.383a4.576 4.576 0 0 1-3.66 1.622 4.53 4.53 0 0 1-4.668-4.669 4.57 4.57 0 0 1 4.669-4.704 4.617 4.617 0 0 1 3.624 1.61l1.628-1.394a6.694 6.694 0 0 0-5.252-2.37 6.94 6.94 0 0 0-4.973 1.95 6.538 6.538 0 0 0-2.031 4.896 6.536 6.536 0 0 0 2.031 4.891 7.004 7.004 0 0 0 4.973 1.938m14.212-2.866a3.046 3.046 0 0 1-4.226 0 3.017 3.017 0 0 1-.835-2.142 2.918 2.918 0 0 1 .835-2.124 2.988 2.988 0 0 1 4.226 0 2.866 2.866 0 0 1 .858 2.124 2.919 2.919 0 0 1-.858 2.142Zm3.11-2.142a4.798 4.798 0 0 0-1.517-3.6 5.13 5.13 0 0 0-3.695-1.466 5.142 5.142 0 0 0-3.7 1.465 5.031 5.031 0 0 0 0 7.203 5.137 5.137 0 0 0 3.7 1.459 5.124 5.124 0 0 0 3.695-1.46 4.804 4.804 0 0 0 1.517-3.6m4.798-.724a2.13 2.13 0 0 1 2.218-2.218 1.92 1.92 0 0 1 2.03 2.124v5.597h2.277v-5.918c0-2.37-1.348-3.829-3.625-3.829a3.111 3.111 0 0 0-2.918 1.553v-1.366H26.85v9.56h2.276v-5.503Zm13.954-.129c-.38-.134-.91-.327-1.167-.402a6.361 6.361 0 0 1-.776-.339.752.752 0 0 1-.438-.665c0-.514.455-.852 1.167-.852a2.218 2.218 0 0 1 1.856.8l1.22-1.349a3.688 3.688 0 0 0-3.093-1.407 3.828 3.828 0 0 0-2.41.782 2.497 2.497 0 0 0-.917 2.084c0 1.366.811 2.142 2.334 2.69.322.135.888.304 1.168.403.308.09.607.21.893.356a.91.91 0 0 1 .548.76c0 .583-.513 1.044-1.704 1.044a2.964 2.964 0 0 1-2.527-1.197l-1.46 1.232c.584 1.196 2.032 1.938 3.946 1.938 2.598 0 3.928-1.273 3.928-3.035 0-1.366-.8-2.218-2.562-2.843m19.675-2.504v-1.423h-2.259v9.56h2.26v-5.025a2.393 2.393 0 0 1 2.608-2.563c.317.002.634.034.945.094v-2.2a3.782 3.782 0 0 0-.712-.053 2.954 2.954 0 0 0-2.842 1.61m10.237 8.4a5.02 5.02 0 0 0 3.834-1.647l-1.406-1.465a3.192 3.192 0 0 1-2.428 1.045 2.854 2.854 0 0 1-2.101-.852 3.163 3.163 0 0 1 0-4.284 2.836 2.836 0 0 1 2.101-.858 3.209 3.209 0 0 1 2.428 1.045l1.406-1.46a5.006 5.006 0 0 0-3.834-1.65 5.147 5.147 0 0 0-3.695 1.458 5.1 5.1 0 0 0 0 7.226 5.107 5.107 0 0 0 3.695 1.441M80.3 19.275a1.348 1.348 0 1 0 0 2.697 1.348 1.348 0 0 0 0-2.697m1.137 3.811h-2.276v9.56h2.276v-9.56Zm9.858 6.923a3.047 3.047 0 0 1-4.225 0 3.018 3.018 0 0 1-.835-2.143 2.918 2.918 0 0 1 .835-2.124 3 3 0 0 1 4.225 0 2.861 2.861 0 0 1 .852 2.124 2.918 2.918 0 0 1-.852 2.143Zm-2.1-7.209a5.131 5.131 0 0 0-3.701 1.465 5.031 5.031 0 0 0 0 7.203 5.416 5.416 0 0 0 7.394 0 5.03 5.03 0 0 0 0-7.203 5.13 5.13 0 0 0-3.694-1.465m-33.787-3.373h-2.58l-.793 2.259h1.861l1.512-2.26Zm-4.78 6.315a3 3 0 0 1 4.226 0 2.866 2.866 0 0 1 .858 2.125 2.919 2.919 0 0 1-.846 2.142 3.047 3.047 0 0 1-4.226 0 3.018 3.018 0 0 1-.835-2.142 2.92 2.92 0 0 1 .835-2.125h-.012Zm2.136 7.185a5.124 5.124 0 0 0 3.695-1.46 5.03 5.03 0 0 0 0-7.201 5.399 5.399 0 0 0-7.395 0 5.031 5.031 0 0 0 0 7.202 5.134 5.134 0 0 0 3.7 1.459" fill="#000"/><path d="M3.444 76.837a.672.672 0 0 1-.292.081h-1.08v-1.266h1.074a.648.648 0 0 1 .298.076c.163.064.263.268.263.584a.584.584 0 0 1-.263.548v-.023Zm-.228-2.603H.48v5.836h1.593v-1.692H3.24a2.037 2.037 0 0 0 1.412-.584 1.931 1.931 0 0 0 .601-1.506 1.984 1.984 0 0 0-.694-1.581 2.142 2.142 0 0 0-1.343-.514m6.834 4.085a1.587 1.587 0 1 1-.51-2.606c.194.082.367.204.51.359a1.524 1.524 0 0 1 .478 1.12 1.545 1.545 0 0 1-.478 1.127Zm-1.12-4.156a3.187 3.187 0 0 0-2.283.887 2.918 2.918 0 0 0 0 4.272 3.208 3.208 0 0 0 2.282.882 3.204 3.204 0 0 0 2.282-.882 2.86 2.86 0 0 0 .946-2.136 2.82 2.82 0 0 0-.946-2.136 3.188 3.188 0 0 0-2.282-.887m6.439 2.837h-.888v-1.307h1.022a.585.585 0 0 1 .584.618.631.631 0 0 1-.69.689h-.028Zm2.3-.735a1.879 1.879 0 0 0-.584-1.425 2.073 2.073 0 0 0-1.489-.583h-2.708v5.836h1.593v-1.844h.584l1.168 1.82h1.861L16.64 77.87a1.804 1.804 0 0 0 .992-1.669m5.229 1.604-.642-.718-1.05.905.624.688a1.913 1.913 0 0 1-.385.03 1.574 1.574 0 0 1-1.127-.45 1.588 1.588 0 0 1 1.127-2.708 1.617 1.617 0 0 1 1.587 1.582c.01.231-.036.461-.134.67Zm.823-2.802a3.397 3.397 0 0 0-4.552 0 2.918 2.918 0 0 0 0 4.261 3.245 3.245 0 0 0 2.276.87c.494.005.982-.1 1.43-.31l.514.584 1.044-.91-.478-.538a2.62 2.62 0 0 0 .706-1.809 2.807 2.807 0 0 0-.94-2.13m5.259 2.347c0 .968-.368 1.324-1.033 1.324-.666 0-1.028-.356-1.028-1.324V74.21H25.29v3.327a2.467 2.467 0 0 0 .747 1.937 3 3 0 0 0 3.753 0 2.468 2.468 0 0 0 .747-1.937V74.21h-1.593v3.158Zm4.08.385h2.527v-1.308h-2.527v-.8h2.713V74.21H31.43v5.842h4.372v-1.406h-2.779v-.893Zm9.057-1.156a9.278 9.278 0 0 0-1.027-.309 1.563 1.563 0 0 1-.292-.1.321.321 0 0 1-.239-.338c0-.204.228-.356.636-.356a1.297 1.297 0 0 1 1.057.461l1.05-.898a2.562 2.562 0 0 0-2.165-.934 2.334 2.334 0 0 0-1.483.46 1.523 1.523 0 0 0-.583 1.29 1.751 1.751 0 0 0 1.354 1.681c.274.105.694.228.922.298l.338.117c.228.093.327.198.327.362 0 .274-.256.42-.776.42a1.81 1.81 0 0 1-1.511-.718l-1.121.864c.246.366.576.668.963.881a3.27 3.27 0 0 0 1.617.356c1.552 0 2.334-.718 2.334-1.85 0-.794-.408-1.325-1.418-1.687m6.17 1.681a1.587 1.587 0 0 1-2.709-1.127 1.513 1.513 0 0 1 .473-1.12 1.494 1.494 0 0 1 1.12-.48 1.518 1.518 0 0 1 1.127.48 1.54 1.54 0 0 1 .473 1.12 1.565 1.565 0 0 1-.473 1.127h-.011Zm-1.127-4.156a3.187 3.187 0 0 0-2.282.887 2.919 2.919 0 0 0 0 4.272 3.397 3.397 0 0 0 4.564 0 2.859 2.859 0 0 0 .946-2.136 2.818 2.818 0 0 0-.946-2.136 3.187 3.187 0 0 0-2.282-.887m7.832 3.222-2.45-3.134h-1.425v5.842h1.53V76.79l2.573 3.262h1.296V74.21h-1.524v3.134Zm6.275-1.103h-2.2V74.21h-1.594v5.842h1.593v-2.358h2.2v2.358H62.8V74.21h-1.587v2.031Zm4.523 1.815.706-1.81.706 1.81h-1.412Zm0-3.846-2.382 5.836h1.675l.316-.764h2.24l.304.764h1.687l-2.381-5.836h-1.46Zm6.828 2.749h-.887V75.65h1.021a.585.585 0 0 1 .584.619.631.631 0 0 1-.689.689h-.029Zm2.3-.736a1.868 1.868 0 0 0-.584-1.424 2.047 2.047 0 0 0-1.482-.584h-2.656v5.837h1.593v-1.844h.584l1.167 1.82h1.804l-1.46-2.159a1.798 1.798 0 0 0 .999-1.67m7.341 1.145-2.445-3.134h-1.424v5.842h1.524V76.79l2.573 3.262H83.7V74.21h-1.53v3.134Zm4.465.712.7-1.81.707 1.81h-1.407Zm-.029-3.846-2.38 5.836h1.68l.31-.764h2.246l.298.764h1.704l-2.381-5.836h-1.477Zm.018-.671c.22.021.433.083.63.18.24.117.5.18.765.187.718 0 1.138-.437 1.255-1.301l-.823-.134c-.058.239-.18.356-.367.356a1.751 1.751 0 0 1-.63-.187 1.867 1.867 0 0 0-.742-.187 1.266 1.266 0 0 0-1.243 1.243l.823.135a.304.304 0 0 1 .332-.292m8.09 4.739a1.587 1.587 0 1 1-1.12-2.726 1.494 1.494 0 0 1 1.12.478 1.523 1.523 0 0 1 .479 1.121 1.549 1.549 0 0 1-.479 1.127Zm-1.12-4.156a3.187 3.187 0 0 0-2.283.887 2.919 2.919 0 0 0 0 4.272 3.397 3.397 0 0 0 4.564 0 2.859 2.859 0 0 0 .946-2.136 2.818 2.818 0 0 0-.946-2.136 3.187 3.187 0 0 0-2.282-.887m5.2 1.53h1.576v4.4h1.593v-4.4h1.541V74.21h-4.71v1.442Zm6.823 2.101h2.533v-1.308h-2.533v-.8h2.72V74.21h-4.314v5.842h4.378v-1.406h-2.784v-.893Zm6.8-.888-1.891-2.655h-1.308v5.842h1.471V76.96l1.728 2.387 1.727-2.387v3.093h1.477V74.21h-1.308l-1.896 2.656Zm8.27-2.655h-1.594v5.842h3.817v-1.441h-2.223V74.21Zm4.493 0h-1.593v5.842h1.593V74.21Zm4.191 2.655-1.891-2.655h-1.307v5.842h1.471V76.96l1.727 2.387 1.728-2.387v3.093h1.476V74.21h-1.307l-1.897 2.656Zm5.79-2.655h-1.594v5.842h1.594V74.21Zm.554 1.442h1.57v4.4h1.594v-4.4h1.546V74.21h-4.71v1.442Zm6.823 2.101h2.533v-1.308h-2.533v-.8h2.714V74.21h-4.307v5.842h4.377v-1.406h-2.784v-.893Zm6.63-1.156a9.275 9.275 0 0 0-1.027-.31 1.604 1.604 0 0 1-.297-.098.322.322 0 0 1-.234-.339c0-.204.228-.356.636-.356a1.301 1.301 0 0 1 1.057.461l1.05-.899a2.564 2.564 0 0 0-2.165-.933 2.337 2.337 0 0 0-1.483.46 1.52 1.52 0 0 0-.612 1.29 1.746 1.746 0 0 0 1.348 1.681c.28.105.7.228.922.298l.344.117c.228.093.327.198.327.362 0 .274-.257.42-.776.42a1.811 1.811 0 0 1-1.459-.724l-1.127.864c.25.363.579.665.963.881a3.306 3.306 0 0 0 1.623.356c1.547 0 2.334-.718 2.334-1.85 0-.794-.408-1.325-1.418-1.687" fill="#6D6E71"/></svg>